<?xml version="1.0" encoding="UTF-8"?>
<svg id="_Слой_1" data-name="Слой 1" xmlns="http://www.w3.org/2000/svg" viewBox="0 0 102.31 142.68">
  <defs>
    <style>
      .cls-1 {
        fill: #211b89;
      }

      .cls-2 {
        fill: #3d3d3d;
      }
    </style>
  </defs>
  <g>
    <path class="cls-1" d="M102.3,28c0-.05,0-.11-.02-.16,0-.02,0-.04-.01-.06,0-.01,0-.02,0-.03-.04-.13-.12-.24-.21-.34-.01-.01-.03-.03-.04-.04-.04-.04-.09-.07-.13-.1-.01,0-.02-.02-.03-.02l-4.03-2.25v-4.87s0,0,0-.01c0-.02,0-.04,0-.06,0-.04,0-.07-.01-.11,0-.02,0-.04-.02-.06,0-.04-.02-.07-.04-.11,0-.01,0-.02-.01-.03,0,0,0-.01-.01-.02-.02-.04-.04-.07-.06-.11,0-.01-.02-.03-.02-.04-.03-.04-.07-.08-.11-.12-.01-.01-.03-.02-.04-.03-.03-.02-.06-.04-.09-.06-.02-.01-.04-.02-.06-.03-.03-.02-.06-.03-.09-.04-.02,0-.04-.02-.07-.02-.01,0-.03-.01-.04-.01l-9.81-2.72c-.26-.07-.55-.02-.77.14l-5.4,3.89-5.57-.93v-4.85s0,0,0,0c0-.01,0-.03,0-.04,0-.04,0-.09-.01-.13,0-.02-.01-.04-.02-.06,0-.04-.02-.07-.03-.1,0-.02-.02-.04-.03-.06-.01-.03-.03-.06-.05-.09-.01-.02-.03-.04-.04-.06-.02-.03-.04-.06-.07-.08,0,0-.01-.02-.02-.03,0,0-.02-.01-.03-.02-.03-.02-.05-.05-.08-.07-.02-.01-.04-.03-.05-.04-.03-.02-.06-.03-.09-.05-.02,0-.04-.02-.06-.03-.03-.01-.06-.02-.1-.03-.02,0-.04-.01-.07-.02,0,0,0,0,0,0l-1.75-.3v-5.76s0-.02,0-.02c0-.03,0-.06,0-.09,0-.03,0-.06-.01-.09,0-.03-.01-.05-.02-.08,0-.03-.02-.06-.03-.09-.01-.02-.02-.05-.04-.07-.01-.03-.03-.05-.05-.08-.01-.02-.03-.04-.05-.06-.02-.03-.04-.05-.07-.07,0,0-.02-.02-.03-.03,0,0-.02-.01-.03-.02-.03-.02-.05-.04-.08-.06-.02-.01-.04-.03-.06-.04-.03-.02-.06-.03-.09-.04-.02,0-.05-.02-.07-.03-.03,0-.06-.02-.09-.02-.03,0-.05-.01-.08-.01,0,0-.02,0-.03,0l-2.93-.24V1.62c0-.47-.36-.87-.83-.91L60.7.06c-.25-.02-.49.06-.68.22-.19.16-.3.4-.31.64l-.29,6.98-1.91,3.08s-.01.03-.02.04c-.03.05-.05.09-.06.14,0,.02-.01.03-.02.05-.02.06-.03.13-.03.19,0,0,0,.02,0,.03,0,0,0,.01,0,.02l-.02,5.62h-12.43l-.02-5.61s0-.03,0-.04c0-.03,0-.06,0-.1,0-.18-.07-.35-.17-.49,0,0,0-.01,0-.02l-1.86-3-.28-6.64c-.01-.34-.17-.66-.42-.88s-.59-.33-.92-.31l-7.13.59c-.64.05-1.14.6-1.14,1.24v4.74l-2.62.21c-.05,0-.1.02-.15.03-.24-.02-.49.05-.69.23-.24.22-.34.53-.29.83,0,.05-.02.1-.02.16v5.46l-1.48.25s-.09.02-.14.04c-.23,0-.45.09-.62.26-.21.21-.3.5-.26.78,0,.05-.01.09-.01.14v4.57l-5.57.93-5.27-3.79c-.31-.22-.69-.29-1.06-.19l-9.42,2.61s-.08.03-.12.04c-.3.04-.57.23-.71.52-.07.16-.1.34-.07.5,0,.04-.01.08-.01.13v4.62l-3.86,2.15s-.04.04-.07.05c-.24.1-.43.29-.52.54-.05.14-.06.28-.04.41,0,.03-.01.05-.01.08v12.99c0,.49.29.93.73,1.13l16.14,7.3c.12.35.46.61.85.61.25,0,.47-.1.64-.26.07-.02.14-.04.21-.08l6.72-3.34c.42-.21.68-.63.69-1.1l.07-5.58,4.71-.86,4.39,4.59s.04.03.06.05c.16.21.42.35.71.35h0c.07,0,.14-.01.21-.03.02,0,.04,0,.07,0l2.78-.34c-.19,1.83-1.05,5.79-4.93,8.07-3.39,1.99-5.16,3.33-6.59,4.41-.93.71-1.74,1.32-2.77,1.93-.08.05-.15.11-.21.17-6.08,6.78-5.29,12.6-3.57,16.29,4.25,9.07,18.51,14.85,29.73,14.85.39,0,.77,0,1.15-.02,17.73-1.03,31.09-9.95,31.09-20.77,0-.04,0-.08,0-.12-1.53-11.38-11.25-17.93-28.89-19.46-.44-.07-5.2-.99-5.2-6.26s6.14-5.39,6.39-5.39l2.13.03v4.81c-.01.46.33.85.79.9l3.89.47c.11.05.24.08.37.08.05,0,.11,0,.16-.02l3.75.46s.03,0,.05,0c.02,0,.04,0,.06,0h0s.03,0,.05,0c.03,0,.06,0,.09,0,.04,0,.07-.02.11-.03.03,0,.05-.01.08-.02.04-.02.08-.04.12-.06.02-.01.04-.02.05-.03.05-.04.1-.08.15-.12,0,0,0,0,0,0l4.5-4.71,4.71.86.08,5.78c0,.34.2.65.5.8l7.05,3.5s.07.03.11.04c.16.14.37.23.6.23.4,0,.73-.25.85-.61l16.34-7.39c.33-.15.53-.47.53-.83v-13.4s0-.02,0-.04ZM99.18,27.83l-14.56,4.98-3.3-1.37v-2.04l3.99-2.04c.45-.23.62-.78.4-1.22s-.77-.62-1.22-.4l-4.14,2.12-1.12-.38,2.7-1.91s.03-.02.04-.04c.04-.03.07-.06.1-.09.02-.02.03-.04.05-.06.02-.03.05-.06.07-.1.01-.02.02-.05.04-.07.02-.04.03-.08.04-.12,0-.02.02-.05.02-.08,0-.01,0-.02,0-.03,0-.04,0-.07,0-.1,0-.02,0-.03,0-.05v-2.09l5.58,1.76v3.27c0,.5.41.91.91.91s.91-.41.91-.91v-3.35l6.31-2.89v3.99c0,.33.18.63.47.79l2.71,1.51ZM81.31,33.41l2.36.98v13.47l-2.36-1.17v-13.27ZM76.71,27.03s0,0,0,0c0,0,0,0,0,0-.05.04-.1.08-.14.13-.01.01-.02.03-.04.05-.03.04-.06.08-.08.12-.01.02-.02.04-.03.06-.02.04-.03.08-.05.12,0,.02-.01.04-.02.07-.01.05-.02.09-.02.14,0,.01,0,.03,0,.04l-.08,10.29-4.11-.75v-13.12l6.93,1.18-2.36,1.67ZM87.27,18.39l6.99,1.94-5.54,2.54-5.33-1.68,3.88-2.79ZM80.47,22.27v1.48l-9.1-1.55c-.26-.05-.53.03-.74.2-.2.17-.32.43-.32.69v14.59l-3.04,3.18-.15-17.19,6.65-6.72v3.41c0,.44.32.82.76.9l5.94,1ZM43.19,41.24l-2.33.28v-18.15c0-.06,0-.12-.02-.19.05-.27-.02-.55-.21-.77l-2.64-2.98c-.33-.38-.91-.41-1.28-.08-.38.33-.41.91-.08,1.28l1.4,1.58-1.57.09-1.49-1.5-.15-8.03,8.29-.42.02,5.65s0,0,0,0c0,0,0,0,0,0l.07,23.23ZM37,24.09l2.04-.11v17.76s-2.19.27-2.19.27l.16-17.91ZM31.05,13.96v-3.87l1.95,2.17.12,6.67-3.62-3.66.51-.09c.6-.1,1.03-.62,1.03-1.22ZM33.44,8.36l.49.71c.23.34.62.54,1.03.54.03,0,.07,0,.11,0l6.44-.55.93,1.5-8.15.42-2.25-2.51,1.41-.11ZM44.95,22.18h12.4v2.38h-12.39v-2.38ZM59.18,21.27s0,0,0,0c0,0,0,0,0,0l.02-8.84,8.29.42-.15,8.03-1.49,1.5-1.57-.09,1.4-1.58c.33-.38.3-.95-.08-1.28s-.95-.3-1.28.08l-2.64,2.98s-.02.03-.03.04c-.02.02-.04.05-.05.08-.02.03-.03.05-.05.08-.01.03-.02.05-.03.08-.01.03-.02.06-.03.09,0,.03-.01.05-.02.08,0,.03,0,.07-.01.1,0,.02,0,.04,0,.05v12.44l-2.31-.03.04-14.25ZM60.81,9.14l6.64.57s.05,0,.08,0c.3,0,.58-.15.75-.4l.6-.87,1.41.11-2.25,2.51-8.15-.42.93-1.5ZM72.02,15.22l.79.14-3.62,3.66.12-6.67,1.95-2.17v4.15c0,.44.32.82.75.9ZM63.27,24.07l2.04.11.16,17.92-2.19-.27v-17.76ZM67.5,2.45v4.76l-.44.64-5.8-.5.23-5.4,6,.5ZM57.36,18.91v1.45h-12.41v-1.45s12.41,0,12.41,0ZM34.81,2.37l6-.5.23,5.4-5.8.5-.44-.64s0-.02,0-.02V2.37ZM27.5,21.24c.6-.1,1.04-.62,1.04-1.22v-3.13l6.65,6.72-.15,17.19-3.04-3.18v-14.2c0-.37-.16-.71-.44-.95-.28-.24-.65-.34-1.01-.27l-8.71,1.48v-1.48l5.67-.95ZM25.99,28.14c0-.08-.01-.16-.03-.24.09-.35-.04-.73-.36-.96l-2.36-1.67,6.93-1.18v13.12l-4.11.75-.07-9.83ZM15.04,18.3l3.88,2.79-5.33,1.68-5.54-2.54,6.99-1.94ZM5.68,26.33c.39-.22.64-.63.64-1.08v-3.79l6.31,2.89v3.35c0,.5.41.91.91.91s.91-.41.91-.91v-3.27l5.58-1.76v1.92s0,.05,0,.08c0,.08-.01.16,0,.25.05.28.22.51.46.64.02.02.03.04.05.05l2.56,1.81-1.12.38-4.14-2.12c-.45-.23-.99-.05-1.22.4-.23.45-.05.99.4,1.22l3.99,2.04v2.04l-3.3,1.37-14.56-4.98,2.54-1.42ZM18.64,34.3l2.36-.98v13.27l-2.36,1.17v-13.47ZM1.82,29.22l15,5.13v13.2l-15-6.78v-11.55ZM24.18,45.02l-1.36.67v-13.72s0,0,0,0v-2.55l1.36-.46.08,10.11s0,.07.01.11c0,.05-.01.1-.02.15l-.08,5.7ZM55.18,35.47c-2.84.02-8.21,1.54-8.21,7.21s4.43,7.71,6.77,8.06c.02,0,.04,0,.06,0,16.67,1.44,25.84,7.44,27.27,17.83-.05,9.81-12.67,17.92-29.36,18.89-10.77.39-25.05-5.05-29.14-13.78-2.16-4.61-1.09-9.39,3.18-14.2,1.06-.64,1.88-1.26,2.82-1.97,1.39-1.05,3.12-2.36,6.41-4.3,4.87-2.86,5.71-7.93,5.85-9.86l3.08-.38c.63-.08,1.09-.61,1.09-1.24l-.04-15.37h12.38l-.03,9.12-2.13-.03ZM59.13,37.33l2.32.03v4.24l-2.33-.28v-3.99ZM78.05,39.14l.08-10.1,1.36.46v2.55s0,0,0,0v13.72l-1.36-.67-.08-5.97ZM85.49,47.63v-13.2l15-5.13v11.55l-15,6.78Z"/>
    <path class="cls-1" d="M29.83,60.02c-4.98,5.13-4.87,11.51.29,17.05.2.21.46.32.73.32.24,0,.49-.09.68-.27.4-.37.42-1,.05-1.41-6.06-6.5-2.8-11.75-.32-14.31,5.11-5.26,14.93-7.93,22.98-5.64-.98-.1-1.98-.15-3-.15-10.8,0-19.59,5.68-19.59,12.67,0,3.04,1.67,5.83,4.44,8.02.02.02.03.05.05.07,4.61,4.83,10.91,7.38,17.71,7.38,2.66,0,5.39-.39,8.14-1.18,7.58-2.2,13.18-7.11,14.27-12.51.6-2.96.13-7.44-5.46-11.95-.43-.34-1.05-.28-1.4.15-.34.43-.28,1.05.15,1.4,3.81,3.08,5.46,6.54,4.76,10.01-.94,4.68-5.99,9-12.87,10.99-5.27,1.53-10.49,1.44-15.1-.11,1.57.26,3.21.4,4.9.4,10.8,0,19.59-5.68,19.59-12.67,0-4.34-3.4-8.18-8.56-10.47-4.31-3.75-10.35-5.42-17.04-4.7-6.07.65-11.83,3.23-15.4,6.9ZM68.84,68.29c0,5.89-7.89,10.68-17.6,10.68-5.48,0-10.39-1.53-13.61-3.92-.01-.01-.03-.03-.04-.04-.08-.08-.16-.14-.26-.19-2.31-1.81-3.68-4.07-3.68-6.53,0-5.89,7.89-10.68,17.6-10.68,3.68,0,7.09.69,9.92,1.86.08.05.16.08.25.11,4.49,1.94,7.43,5.12,7.43,8.71Z"/>
    <path class="cls-1" d="M51.25,59.33s-.1,0-.15,0c-9.19,0-12.99,5.41-13.4,8.05-.32,2.13,1.1,6.72,6,8.22,2.57.79,3.82-.05,4.42-.89.91-1.28.58-3.1-.74-4.06-.66-.48-1.47-1.29-1.59-2.41.04-2.2,2.71-3.2,5.2-3.2,2.79,0,5.95,1.4,6.01,3.28.05,1.43-1.92,2.29-2.77,2.59-.13.04-.25.08-.38.13-.53.17-1.13.36-1.67.8h0c-.58.47-.92,1.26-.9,2.05.03.85.44,1.59,1.16,2.11.58.41,1.29.62,2.08.62.29,0,.58-.03.88-.09,7.71-1.47,9.32-5.74,9.32-9.06,0-1.59-2.4-8.03-13.48-8.14ZM55.04,74.58c-.58.11-1.09.04-1.43-.2-.21-.15-.32-.34-.33-.55,0-.21.09-.39.16-.45.25-.2.61-.32,1.03-.45.15-.05.29-.09.43-.14,2.66-.94,4.16-2.59,4.1-4.53-.1-3.22-4.23-5.21-8-5.21-3.46,0-7.19,1.64-7.19,5.24,0,.03,0,.06,0,.09.17,1.88,1.4,3.15,2.4,3.88.44.32.57.9.29,1.3-.4.56-1.42.38-2.22.14-3.76-1.15-4.81-4.72-4.61-6.02.19-1.27,2.84-6.36,11.42-6.36.04,0,.09,0,.14,0,10.44.11,11.51,6.13,11.51,6.15,0,3.74-2.59,6.13-7.71,7.11Z"/>
  </g>
  <g>
    <path class="cls-1" d="M25.15,142.68c-.35,0-.62-.1-.83-.3-.2-.2-.3-.5-.3-.89v-1.57h.29v1.56c0,.32.07.56.22.72s.35.23.62.23.48-.08.62-.23c.15-.15.22-.39.22-.72v-1.56h.28v1.57c0,.39-.1.69-.3.89-.2.2-.47.3-.82.3Z"/>
    <path class="cls-1" d="M28.75,142.65v-2.9h.28v2.9h-.28ZM28.97,142.12v-.36s1.29-1.17,1.29-1.17h.34l-.9.86-.16.13-.57.52ZM30.34,142.65l-.86-1.07.18-.22,1.02,1.28h-.34Z"/>
    <path class="cls-1" d="M32.74,142.65v-2.05h.27v.56l-.03-.1c.06-.16.15-.28.29-.36s.3-.12.51-.12v.27s-.02,0-.03,0c-.01,0-.02,0-.03,0-.22,0-.39.07-.51.2-.12.13-.18.32-.18.56v1.05h-.28Z"/>
    <path class="cls-1" d="M36.36,142.67c-.15,0-.29-.03-.4-.08-.11-.05-.2-.12-.26-.21-.06-.09-.09-.19-.09-.31,0-.11.03-.2.08-.29.05-.09.13-.16.25-.21.12-.05.27-.08.47-.08h.71v.21h-.7c-.2,0-.34.04-.41.11-.08.07-.11.16-.11.26,0,.12.05.21.14.28.09.07.22.11.38.11s.29-.04.41-.11c.11-.07.2-.17.25-.31l.06.19c-.05.14-.14.24-.27.32s-.29.12-.49.12ZM37.07,142.65v-.53s-.01-.76-.01-.76c0-.17-.05-.31-.15-.4-.1-.09-.24-.14-.44-.14-.13,0-.26.02-.38.07-.12.04-.22.1-.31.18l-.12-.21c.1-.09.23-.16.38-.21.15-.05.3-.07.46-.07.27,0,.47.07.62.2.14.13.22.33.22.6v1.28h-.27Z"/>
    <path class="cls-1" d="M39.9,140.14c-.06,0-.11-.02-.15-.06s-.06-.09-.06-.14.02-.1.06-.14c.04-.04.09-.06.15-.06s.11.02.14.05c.04.04.06.08.06.14s-.02.11-.06.14-.09.06-.15.06ZM39.76,142.65v-2.05h.28v2.05h-.28Z"/>
    <path class="cls-1" d="M43.52,140.58c.17,0,.31.03.44.1s.23.16.3.29.11.29.11.49v1.19h-.28v-1.17c0-.22-.05-.38-.16-.49-.11-.11-.26-.17-.46-.17-.15,0-.27.03-.38.09s-.19.14-.25.25c-.06.11-.09.24-.09.4v1.08h-.28v-2.05h.27v.56l-.04-.11c.06-.15.17-.26.31-.35.14-.08.31-.13.51-.13Z"/>
    <path class="cls-1" d="M46.92,140.14c-.06,0-.11-.02-.15-.06s-.06-.09-.06-.14.02-.1.06-.14c.04-.04.09-.06.15-.06s.11.02.14.05c.04.04.06.08.06.14s-.02.11-.06.14-.09.06-.15.06ZM46.78,142.65v-2.05h.28v2.05h-.28Z"/>
    <path class="cls-1" d="M50.08,142.67c-.15,0-.29-.03-.4-.08-.11-.05-.2-.12-.26-.21-.06-.09-.09-.19-.09-.31,0-.11.03-.2.08-.29.05-.09.13-.16.25-.21.12-.05.27-.08.47-.08h.71v.21h-.7c-.2,0-.34.04-.41.11-.08.07-.11.16-.11.26,0,.12.05.21.14.28.09.07.22.11.38.11s.29-.04.41-.11c.11-.07.2-.17.25-.31l.06.19c-.05.14-.14.24-.27.32s-.29.12-.49.12ZM50.78,142.65v-.53s-.01-.76-.01-.76c0-.17-.05-.31-.15-.4-.1-.09-.24-.14-.44-.14-.13,0-.26.02-.38.07-.12.04-.22.1-.31.18l-.12-.21c.1-.09.23-.16.38-.21.15-.05.3-.07.46-.07.27,0,.47.07.62.2.14.13.22.33.22.6v1.28h-.27Z"/>
    <path class="cls-1" d="M54.52,140.58c.17,0,.31.03.44.1s.23.16.3.29.11.29.11.49v1.19h-.28v-1.17c0-.22-.05-.38-.16-.49-.11-.11-.26-.17-.46-.17-.15,0-.27.03-.38.09s-.19.14-.25.25c-.06.11-.09.24-.09.4v1.08h-.28v-2.05h.27v.56l-.04-.11c.06-.15.17-.26.31-.35.14-.08.31-.13.51-.13Z"/>
    <path class="cls-1" d="M60.52,142.65v-2.74h1.18c.31,0,.54.06.71.18.17.12.25.3.25.52,0,.15-.03.27-.1.38-.07.1-.16.18-.28.23-.12.05-.25.08-.39.08l.07-.09c.17,0,.32.03.45.08s.23.13.3.24c.07.11.11.24.11.39,0,.23-.09.41-.26.54-.17.13-.43.19-.77.19h-1.26ZM60.81,142.41h.97c.24,0,.42-.04.55-.12.13-.08.19-.21.19-.39s-.06-.31-.19-.39c-.13-.08-.31-.12-.55-.12h-1v-.24h.9c.22,0,.39-.04.51-.12.12-.08.18-.21.18-.37s-.06-.29-.18-.37c-.12-.08-.29-.12-.51-.12h-.87v2.26Z"/>
    <path class="cls-1" d="M65.08,142.65v-2.05h.27v.56l-.03-.1c.06-.16.15-.28.29-.36s.3-.12.51-.12v.27s-.02,0-.03,0c-.01,0-.02,0-.03,0-.22,0-.39.07-.51.2-.12.13-.18.32-.18.56v1.05h-.28Z"/>
    <path class="cls-1" d="M68.71,142.67c-.15,0-.29-.03-.4-.08-.11-.05-.2-.12-.26-.21-.06-.09-.09-.19-.09-.31,0-.11.03-.2.08-.29.05-.09.13-.16.25-.21.12-.05.27-.08.47-.08h.71v.21h-.7c-.2,0-.34.04-.41.11-.08.07-.11.16-.11.26,0,.12.05.21.14.28.09.07.22.11.38.11s.29-.04.41-.11c.11-.07.2-.17.25-.31l.06.19c-.05.14-.14.24-.27.32s-.29.12-.49.12ZM69.41,142.65v-.53s-.01-.76-.01-.76c0-.17-.05-.31-.15-.4-.1-.09-.24-.14-.44-.14-.13,0-.26.02-.38.07-.12.04-.22.1-.31.18l-.12-.21c.1-.09.23-.16.38-.21.15-.05.3-.07.46-.07.27,0,.47.07.62.2.14.13.22.33.22.6v1.28h-.27Z"/>
    <path class="cls-1" d="M73.15,140.58c.17,0,.31.03.44.1s.23.16.3.29.11.29.11.49v1.19h-.28v-1.17c0-.22-.05-.38-.16-.49-.11-.11-.26-.17-.46-.17-.15,0-.27.03-.38.09s-.19.14-.25.25c-.06.11-.09.24-.09.4v1.08h-.28v-2.05h.27v.56l-.04-.11c.06-.15.17-.26.31-.35.14-.08.31-.13.51-.13Z"/>
    <path class="cls-1" d="M77.23,142.67c-.2,0-.37-.04-.53-.13s-.28-.21-.37-.37c-.09-.16-.13-.34-.13-.55s.04-.39.13-.55c.09-.16.21-.28.37-.37s.33-.13.53-.13c.18,0,.34.04.48.12s.26.2.34.35c.09.16.13.35.13.57s-.04.41-.13.57c-.08.16-.2.28-.34.36-.14.08-.3.12-.49.12ZM77.25,142.43c.15,0,.28-.03.39-.1.12-.07.21-.16.27-.28s.1-.26.1-.42-.03-.3-.1-.42-.16-.21-.27-.28c-.12-.07-.25-.1-.39-.1s-.27.03-.39.1c-.11.07-.21.16-.27.28-.07.12-.1.26-.1.42s.03.3.1.42c.07.12.16.22.27.28.11.07.24.1.39.1ZM78.02,142.65v-.62l.03-.42-.04-.42v-1.46h.28v2.9h-.27Z"/>
  </g>
  <g>
    <g>
      <path class="cls-2" d="M20.95,112.76h-3.45l-7.28-7.43h-3.35v7.43h-2.79v-17.1h2.79v7.43h3.22l6.38-7.43h3.53l-7.42,8.55,8.36,8.55Z"/>
      <path class="cls-2" d="M31.55,113.08c-.88,0-1.67-.09-2.39-.26-.71-.17-1.42-.43-2.1-.78-1.38-.7-2.46-1.71-3.26-3.02s-1.2-2.89-1.2-4.74v-8.64h2.79v8.54c0,1.77.54,3.28,1.63,4.53s2.54,1.93,4.37,2.07h.33c1.81-.14,3.26-.83,4.34-2.07,1.08-1.24,1.62-2.75,1.62-4.5v-8.56h2.79v8.56c0,1.44-.23,2.71-.7,3.81s-1.12,2.03-1.96,2.78c-.84.75-1.81,1.32-2.92,1.7-.54.19-1.08.33-1.61.43-.53.1-1.11.14-1.74.14Z"/>
      <path class="cls-2" d="M51.6,112.76h-2.79v-14.87h-7.07v-2.24h16.94v2.24h-7.07v14.87Z"/>
      <path class="cls-2" d="M69.77,113.08c-1.74,0-3.3-.35-4.68-1.04-1.38-.69-2.46-1.7-3.26-3.01s-1.2-2.9-1.2-4.74c0-1.49.24-2.8.73-3.93.48-1.13,1.15-2.06,2-2.81.85-.75,1.82-1.31,2.92-1.68,1.1-.37,2.26-.55,3.48-.55,1.72,0,3.27.35,4.65,1.04,1.38.7,2.48,1.71,3.29,3.04s1.21,2.93,1.21,4.82c0,1.44-.23,2.71-.7,3.82s-1.12,2.03-1.96,2.78c-.84.75-1.81,1.31-2.92,1.69-1.11.38-2.29.57-3.56.57ZM69.77,110.8h.38c1.8-.15,3.24-.84,4.31-2.09,1.07-1.25,1.6-2.75,1.6-4.51s-.54-3.28-1.6-4.53c-1.07-1.24-2.51-1.93-4.32-2.07h-.36s-.36,0-.36,0c-1.81.14-3.26.83-4.32,2.08-1.07,1.25-1.61,2.76-1.61,4.52s.54,3.27,1.61,4.52c1.07,1.25,2.51,1.94,4.32,2.06h.36Z"/>
      <path class="cls-2" d="M98.23,112.76h-3.45l-7.28-7.43h-3.35v7.43h-2.79v-17.1h2.79v7.43h3.22l6.38-7.43h3.53l-7.42,8.55,8.36,8.55Z"/>
    </g>
    <g>
      <path class="cls-2" d="M30.36,134.1h-2.79v-12.38l-5.32,8.66h-2.82l-5.28-8.64v12.36h-2.79v-17.12h2.79l6.69,10.94,6.73-10.94h2.79v17.12Z"/>
      <path class="cls-2" d="M36.1,134.1h-2.79v-17.12h2.79v17.12Z"/>
      <path class="cls-2" d="M46.19,134.42c-1.26,0-2.36-.14-3.29-.41-.93-.27-1.71-.61-2.34-1.01-.63-.4-1.14-.81-1.53-1.22-.39-.41-.68-.76-.87-1.06l2.73-1.03c.52.72,1.19,1.3,2.03,1.75.84.45,1.82.68,2.95.68,1.46,0,2.65-.29,3.57-.86.92-.58,1.38-1.3,1.38-2.18,0-.48-.09-.89-.28-1.22s-.41-.6-.69-.82c-.27-.22-.56-.38-.85-.5-.29-.12-.55-.2-.78-.24-.23-.05-.38-.08-.46-.08l-4.24-.39c-.21-.02-.49-.07-.86-.16-.37-.09-.77-.24-1.2-.44-.43-.2-.85-.47-1.25-.82-.4-.34-.73-.77-.98-1.27s-.39-1.11-.39-1.83.16-1.28.46-1.8c.31-.52.72-.96,1.23-1.32.51-.37,1.07-.66,1.69-.89.62-.23,1.24-.39,1.87-.5.63-.1,1.21-.15,1.74-.15,1.14,0,2.15.13,3.02.4.87.27,1.61.59,2.22.98.61.39,1.11.78,1.5,1.18.39.39.67.73.86,1l-2.71,1.03c-.53-.68-1.23-1.23-2.09-1.65-.86-.43-1.79-.64-2.77-.64-.34,0-.75.04-1.22.12-.47.08-.93.21-1.37.4s-.82.43-1.12.75c-.3.31-.45.69-.45,1.15s.09.81.28,1.09c.18.28.41.5.67.66.26.16.53.27.79.33.27.07.49.11.67.13l4.24.39c.28.02.64.09,1.07.2.44.11.9.28,1.39.51.49.23.95.54,1.38.92s.79.86,1.07,1.44c.28.57.42,1.26.42,2.05s-.15,1.47-.44,2.04c-.29.57-.68,1.05-1.15,1.44-.47.39-.99.71-1.56.95s-1.13.43-1.69.56-1.08.21-1.55.26-.84.07-1.11.07Z"/>
      <path class="cls-2" d="M64.62,134.1h-2.79v-14.87h-7.07v-2.24h16.94v2.24h-7.07v14.87Z"/>
      <path class="cls-2" d="M90.95,134.1h-3.07l-1.62-3.72h-9.94l-1.62,3.72h-3.05l7.72-17.1h3.85l7.73,17.1ZM85.29,128.13l-3.98-9.16-4,9.16h7.98Z"/>
    </g>
  </g>
</svg>