<?xml version="1.0" encoding="UTF-8"?>
<svg id="_Слой_1" data-name="Слой 1" xmlns="http://www.w3.org/2000/svg" viewBox="0 0 150.15 58.05">
  <defs>
    <style>
      .cls-1 {
        fill: #211b89;
      }

      .cls-2 {
        fill: #3d3d3d;
      }
    </style>
  </defs>
  <g>
    <g>
      <path class="cls-1" d="M66.5,18.2s0-.07-.01-.11c0-.01,0-.03,0-.04,0,0,0-.01,0-.02-.03-.09-.08-.16-.14-.22,0,0-.02-.02-.03-.03-.03-.02-.06-.05-.09-.07,0,0-.01-.01-.02-.01l-2.62-1.46v-3.17s0,0,0,0c0-.01,0-.03,0-.04,0-.02,0-.05,0-.07,0-.01,0-.03,0-.04,0-.02-.01-.05-.02-.07,0,0,0-.01,0-.02,0,0,0,0,0-.01-.01-.02-.03-.05-.04-.07,0,0-.01-.02-.02-.02-.02-.03-.04-.05-.07-.08,0,0-.02-.01-.03-.02-.02-.01-.04-.03-.06-.04-.01,0-.02-.01-.04-.02-.02-.01-.04-.02-.06-.03-.01,0-.03-.01-.04-.02,0,0-.02,0-.03,0l-6.38-1.77c-.17-.05-.36-.02-.5.09l-3.51,2.53-3.62-.61v-3.15s0,0,0,0c0,0,0-.02,0-.03,0-.03,0-.06,0-.08,0-.01,0-.02-.01-.04,0-.02-.01-.05-.02-.07,0-.01-.01-.03-.02-.04,0-.02-.02-.04-.03-.06,0-.01-.02-.02-.03-.04-.01-.02-.03-.04-.04-.05,0,0,0-.01-.01-.02,0,0-.01,0-.02-.01-.02-.02-.04-.03-.05-.04-.01,0-.02-.02-.03-.02-.02-.01-.04-.02-.06-.03-.01,0-.03-.01-.04-.02-.02,0-.04-.01-.06-.02-.01,0-.03,0-.04-.01,0,0,0,0,0,0l-1.14-.2v-3.75s0-.01,0-.02c0-.02,0-.04,0-.06,0-.02,0-.04,0-.06,0-.02,0-.03-.01-.05,0-.02-.01-.04-.02-.06,0-.02-.02-.03-.02-.05,0-.02-.02-.03-.03-.05,0-.01-.02-.03-.03-.04-.01-.02-.03-.03-.04-.05,0,0-.01-.01-.02-.02,0,0-.01,0-.02-.01-.02-.01-.04-.03-.05-.04-.01,0-.03-.02-.04-.03-.02-.01-.04-.02-.06-.03-.02,0-.03-.01-.05-.02-.02,0-.04,0-.06-.01-.02,0-.04,0-.05,0,0,0-.01,0-.02,0l-1.9-.15V1.05c0-.31-.24-.56-.54-.59l-5.06-.42c-.16-.01-.32.04-.44.15-.12.11-.19.26-.2.42l-.19,4.54-1.24,2s0,.02-.01.03c-.02.03-.03.06-.04.09,0,.01,0,.02-.01.03-.01.04-.02.08-.02.12,0,0,0,.01,0,.02,0,0,0,0,0,.01v3.65h-8.09v-3.65s-.01-.02-.01-.03c0-.02,0-.04,0-.06,0-.12-.05-.23-.11-.32,0,0,0,0,0-.01l-1.21-1.95-.18-4.31c0-.22-.11-.43-.27-.57s-.38-.22-.6-.2l-4.64.39c-.41.03-.74.39-.74.8v3.08l-1.7.14s-.07.01-.1.02c-.16-.01-.32.03-.45.15-.16.14-.22.35-.19.54,0,.03,0,.07,0,.1v3.55l-.96.17s-.06.02-.09.02c-.15,0-.29.06-.41.17-.14.14-.19.33-.17.51,0,.03,0,.06,0,.09v2.97l-3.62.61-3.43-2.47c-.2-.14-.45-.19-.69-.12l-6.12,1.7s-.05.02-.08.03c-.19.03-.37.15-.46.34-.05.11-.06.22-.05.33,0,.03,0,.05,0,.08v3l-2.51,1.4s-.03.02-.04.03c-.15.06-.28.19-.34.35-.03.09-.04.18-.02.27,0,.02,0,.03,0,.05v8.45c0,.32.19.61.47.74l10.49,4.74c.08.23.3.39.55.39.16,0,.31-.07.41-.17.05-.01.09-.03.14-.05l4.37-2.17c.27-.14.44-.41.45-.71l.05-3.63,3.06-.56,2.85,2.98s.02.02.04.03c.11.14.27.23.46.23h0s.09,0,.14-.02c.01,0,.03,0,.04,0l1.81-.22c-.12,1.19-.68,3.77-3.2,5.25-2.2,1.29-3.36,2.17-4.28,2.87-.61.46-1.13.86-1.8,1.26-.05.03-.1.07-.14.11-3.95,4.41-3.44,8.19-2.32,10.59,2.76,5.9,12.03,9.65,19.33,9.65.25,0,.5,0,.75-.01,11.52-.67,20.21-6.47,20.21-13.5,0-.03,0-.05,0-.08-.99-7.4-7.31-11.65-18.78-12.65-.29-.05-3.38-.64-3.38-4.07s3.99-3.5,4.15-3.5l1.39.02v3.13c0,.3.21.55.51.59l2.53.31c.07.03.16.05.24.05.04,0,.07,0,.1-.01l2.44.3s.02,0,.03,0c.01,0,.03,0,.04,0h0s.02,0,.03,0c.02,0,.04,0,.06,0,.02,0,.05,0,.07-.02.02,0,.03,0,.05-.02.03-.01.05-.02.08-.04.01,0,.02-.01.03-.02.04-.02.07-.05.1-.08,0,0,0,0,0,0l2.93-3.06,3.06.56.05,3.76c0,.22.13.42.33.52l4.58,2.28s.05.02.07.03c.1.09.24.15.39.15.26,0,.47-.17.55-.39l10.62-4.8c.21-.1.35-.31.35-.54v-8.71s0-.02,0-.02ZM64.47,18.09l-9.47,3.24-2.15-.89v-1.32l2.59-1.33c.29-.15.41-.5.26-.79s-.5-.41-.8-.26l-2.69,1.38-.73-.25,1.75-1.24s.02-.02.03-.02c.02-.02.05-.04.07-.06.01-.01.02-.03.03-.04.02-.02.03-.04.04-.06,0-.02.02-.03.02-.05.01-.02.02-.05.03-.08,0-.02,0-.03.01-.05,0,0,0-.01,0-.02,0-.02,0-.05,0-.07,0-.01,0-.02,0-.03v-1.36l3.62,1.14v2.12c0,.33.26.59.59.59s.59-.26.59-.59v-2.18l4.1-1.88v2.59c0,.21.12.41.3.52l1.76.98ZM52.85,21.72l1.54.64v8.76l-1.54-.76v-8.63ZM49.86,17.57s0,0,0,0c0,0,0,0,0,0-.03.02-.06.05-.09.08,0,0-.02.02-.02.03-.02.02-.04.05-.05.08,0,.01-.01.03-.02.04-.01.03-.02.05-.03.08,0,.01,0,.03-.01.04,0,.03-.01.06-.01.09,0,0,0,.02,0,.03l-.05,6.69-2.67-.49v-8.53l4.51.77-1.53,1.09ZM56.73,11.95l4.55,1.26-3.6,1.65-3.47-1.09,2.52-1.82ZM52.31,14.48v.96l-5.91-1.01c-.17-.03-.35.02-.48.13-.13.11-.21.28-.21.45v9.49l-1.98,2.07-.1-11.17,4.32-4.37v2.22c0,.29.21.53.49.58l3.86.65ZM28.08,26.81l-1.51.18v-11.8s0-.08-.01-.12c.03-.17-.01-.36-.14-.5l-1.71-1.94c-.22-.24-.59-.27-.83-.05-.24.22-.27.59-.05.83l.91,1.03-1.02.06-.97-.98-.1-5.22,5.39-.28v3.68s.01,0,.01,0c0,0,0,0,0,0l.04,15.1ZM24.05,15.66l1.32-.07v11.55s-1.43.17-1.43.17l.1-11.65ZM20.18,9.07v-2.52l1.27,1.41.08,4.33-2.35-2.38.33-.06c.39-.07.67-.4.67-.8ZM21.74,5.43l.32.46c.15.22.4.35.67.35.02,0,.05,0,.07,0l4.19-.36.6.98-5.3.27-1.46-1.63.91-.07ZM29.22,14.42h8.06v1.55h-8.06v-1.55ZM38.47,13.83s0,0,0,0c0,0,0,0,0,0l.02-5.74,5.39.28-.1,5.22-.97.98-1.02-.06.91-1.03c.22-.24.19-.62-.05-.83s-.62-.19-.83.05l-1.71,1.94s-.01.02-.02.03c-.01.02-.02.03-.04.05-.01.02-.02.03-.03.05,0,.02-.02.03-.02.05,0,.02-.01.04-.02.06,0,.02,0,.03-.01.05,0,.02,0,.04,0,.06,0,.01,0,.02,0,.03v8.09l-1.5-.02.03-9.26ZM39.53,5.94l4.31.37s.03,0,.05,0c.19,0,.38-.1.49-.26l.39-.57.91.07-1.46,1.63-5.3-.27.6-.98ZM46.82,9.9l.51.09-2.35,2.38.08-4.33,1.27-1.41v2.7c0,.29.21.53.49.58ZM41.13,15.64l1.32.07.1,11.65-1.43-.17v-11.55ZM43.88,1.59v3.1l-.28.41-3.77-.32.15-3.51,3.9.33ZM37.29,12.29v.94h-8.07v-.94s8.07,0,8.07,0ZM22.63,1.54l3.9-.33.15,3.51-3.77.32-.28-.42s0,0,0-.01V1.54ZM17.88,13.8c.39-.07.67-.4.67-.8v-2.03l4.32,4.37-.1,11.17-1.98-2.07v-9.23c0-.24-.1-.46-.29-.62-.18-.15-.42-.22-.66-.18l-5.66.96v-.96l3.68-.62ZM16.9,18.29c0-.05,0-.1-.02-.16.06-.23-.03-.48-.23-.62l-1.53-1.09,4.51-.77v8.53l-2.67.49-.05-6.39ZM9.78,11.9l2.52,1.82-3.47,1.09-3.6-1.65,4.55-1.26ZM3.69,17.11c.25-.14.41-.41.41-.7v-2.47l4.1,1.88v2.18c0,.33.26.59.59.59s.59-.26.59-.59v-2.12l3.62-1.14v1.25s0,.03,0,.05c0,.05,0,.11,0,.16.03.18.15.33.3.42.01.01.02.02.04.03l1.66,1.18-.73.25-2.69-1.38c-.29-.15-.65-.03-.79.26-.15.29-.03.65.26.79l2.59,1.33v1.32l-2.15.89-9.47-3.24,1.65-.92ZM12.11,22.3l1.54-.64v8.63l-1.54.76v-8.75ZM1.18,18.99l9.75,3.33v8.58L1.18,26.5v-7.5ZM15.72,29.26l-.88.44v-8.92s0,0,0,0v-1.66l.88-.3.05,6.57s0,.05,0,.07c0,.03,0,.06,0,.1l-.05,3.71ZM35.87,23.06c-1.85.01-5.34,1-5.34,4.68s2.88,5.01,4.4,5.24c.01,0,.02,0,.04,0,10.84.94,16.8,4.84,17.73,11.59-.03,6.37-8.23,11.65-19.09,12.28-7,.26-16.29-3.28-18.95-8.96-1.4-3-.71-6.1,2.07-9.23.69-.42,1.22-.82,1.83-1.28.9-.68,2.03-1.53,4.17-2.79,3.17-1.86,3.71-5.16,3.8-6.41l2-.24c.41-.05.71-.39.71-.8l-.03-9.99h8.05l-.02,5.93-1.39-.02ZM38.44,24.27l1.51.02v2.76l-1.52-.18v-2.59ZM50.74,25.44l.05-6.56.88.3v1.66s0,0,0,0v8.92l-.88-.44-.05-3.88ZM55.57,30.96v-8.58l9.75-3.33v7.5l-9.75,4.41Z"/>
      <path class="cls-1" d="M19.39,39.02c-3.24,3.34-3.17,7.48.19,11.08.13.14.3.21.47.21.16,0,.32-.06.44-.17.26-.24.28-.65.03-.91-3.94-4.22-1.82-7.64-.21-9.3,3.32-3.42,9.7-5.15,14.94-3.67-.64-.06-1.29-.1-1.95-.1-7.02,0-12.73,3.69-12.73,8.24,0,1.98,1.08,3.79,2.88,5.21.01.01.02.03.04.05,3,3.14,7.09,4.8,11.51,4.8,1.73,0,3.51-.25,5.29-.77,4.93-1.43,8.57-4.62,9.27-8.13.39-1.92.09-4.83-3.55-7.77-.28-.22-.69-.18-.91.1-.22.28-.18.69.1.91,2.48,2,3.55,4.25,3.1,6.51-.61,3.04-3.9,5.85-8.37,7.14-3.43.99-6.82.94-9.82-.07,1.02.17,2.09.26,3.18.26,7.02,0,12.73-3.69,12.73-8.24,0-2.82-2.21-5.32-5.57-6.8-2.8-2.43-6.73-3.52-11.08-3.06-3.95.42-7.69,2.1-10.01,4.49ZM44.75,44.39c0,3.83-5.13,6.94-11.44,6.94-3.56,0-6.75-.99-8.85-2.55,0,0-.02-.02-.03-.03-.05-.05-.11-.09-.17-.12-1.5-1.17-2.39-2.65-2.39-4.24,0-3.83,5.13-6.94,11.44-6.94,2.39,0,4.61.45,6.45,1.21.05.03.11.05.16.07,2.92,1.26,4.83,3.33,4.83,5.66Z"/>
      <path class="cls-1" d="M33.32,38.57s-.06,0-.09,0c-5.97,0-8.45,3.52-8.71,5.23-.21,1.38.72,4.37,3.9,5.34,1.67.51,2.49-.03,2.87-.58.59-.83.38-2.01-.48-2.64-.43-.31-.96-.84-1.03-1.57.02-1.43,1.76-2.08,3.38-2.08,1.81,0,3.87.91,3.91,2.13.03.93-1.25,1.49-1.8,1.68-.08.03-.16.06-.25.08-.35.11-.74.24-1.09.52h0c-.38.3-.6.82-.58,1.33.02.55.28,1.04.75,1.37.37.27.84.41,1.35.41.19,0,.38-.02.57-.06,5.01-.95,6.06-3.73,6.06-5.89,0-1.03-1.56-5.22-8.77-5.29ZM35.78,48.48c-.37.07-.71.02-.93-.13-.14-.1-.21-.22-.21-.36,0-.14.06-.25.1-.29.16-.13.4-.21.67-.29.09-.03.19-.06.28-.09,1.73-.61,2.7-1.68,2.66-2.94-.07-2.09-2.75-3.39-5.2-3.39-2.25,0-4.68,1.07-4.68,3.41,0,.02,0,.04,0,.06.11,1.22.91,2.05,1.56,2.52.29.21.37.59.19.84-.26.36-.93.25-1.44.09-2.45-.75-3.13-3.07-3-3.91.13-.82,1.84-4.14,7.43-4.14.03,0,.06,0,.09,0,6.79.07,7.48,3.99,7.48,4,0,2.43-1.69,3.99-5.01,4.62Z"/>
    </g>
    <g>
      <g>
        <path class="cls-2" d="M89.28,27.36h-2.71l-5.73-5.85h-2.64v5.85h-2.2v-13.47h2.2v5.85h2.54l5.03-5.85h2.78l-5.84,6.74,6.59,6.74Z"/>
        <path class="cls-2" d="M97.63,27.62c-.69,0-1.32-.07-1.88-.21-.56-.14-1.11-.34-1.65-.61-1.08-.55-1.94-1.34-2.57-2.38s-.94-2.28-.94-3.73v-6.8h2.2v6.73c0,1.4.43,2.59,1.29,3.57s2,1.52,3.44,1.63h.26c1.43-.11,2.57-.65,3.42-1.63.85-.98,1.28-2.16,1.28-3.55v-6.74h2.2v6.74c0,1.13-.18,2.13-.55,3-.37.87-.88,1.6-1.54,2.19-.66.59-1.43,1.04-2.3,1.34-.43.15-.85.26-1.27.34-.42.08-.88.11-1.37.11Z"/>
        <path class="cls-2" d="M113.42,27.36h-2.2v-11.71h-5.57v-1.77h13.34v1.77h-5.57v11.71Z"/>
        <path class="cls-2" d="M127.73,27.62c-1.37,0-2.6-.27-3.68-.82-1.08-.54-1.94-1.34-2.57-2.37s-.94-2.28-.94-3.73c0-1.18.19-2.21.57-3.1.38-.89.91-1.62,1.57-2.21.67-.59,1.43-1.03,2.3-1.32s1.78-.44,2.74-.44c1.35,0,2.57.27,3.66.82,1.09.55,1.95,1.34,2.59,2.39s.95,2.31.95,3.79c0,1.13-.18,2.14-.55,3.01s-.89,1.6-1.55,2.19c-.66.59-1.43,1.03-2.3,1.33-.87.3-1.8.45-2.8.45ZM127.73,25.82h.3c1.42-.12,2.55-.66,3.39-1.64s1.26-2.17,1.26-3.55-.42-2.58-1.26-3.56c-.84-.98-1.98-1.52-3.41-1.63h-.28s-.28,0-.28,0c-1.43.11-2.56.65-3.41,1.63-.84.98-1.26,2.17-1.26,3.56s.42,2.58,1.26,3.56c.84.98,1.98,1.52,3.41,1.62h.28Z"/>
        <path class="cls-2" d="M150.15,27.36h-2.71l-5.73-5.85h-2.64v5.85h-2.2v-13.47h2.2v5.85h2.54l5.03-5.85h2.78l-5.84,6.74,6.59,6.74Z"/>
      </g>
      <g>
        <path class="cls-2" d="M90.96,44.17h-2.2v-9.75l-4.19,6.82h-2.22l-4.16-6.8v9.73h-2.2v-13.48h2.2l5.27,8.61,5.3-8.61h2.2v13.48Z"/>
        <path class="cls-2" d="M95.48,44.17h-2.2v-13.48h2.2v13.48Z"/>
        <path class="cls-2" d="M103.43,44.42c-1,0-1.86-.11-2.59-.32-.73-.21-1.34-.48-1.84-.79-.5-.32-.9-.64-1.21-.96-.31-.32-.54-.6-.69-.83l2.15-.81c.41.56.94,1.02,1.6,1.38.66.36,1.43.54,2.32.54,1.15,0,2.09-.23,2.81-.68.72-.45,1.09-1.03,1.09-1.71,0-.38-.07-.7-.22-.96s-.32-.47-.54-.64c-.22-.17-.44-.3-.67-.39-.23-.09-.43-.15-.61-.19-.18-.04-.3-.06-.36-.07l-3.34-.31c-.16-.01-.39-.05-.68-.13-.29-.07-.61-.19-.95-.35-.34-.16-.67-.37-.98-.64-.31-.27-.57-.6-.78-1s-.3-.88-.3-1.44.12-1.01.37-1.42c.24-.41.57-.75.97-1.04.4-.29.84-.52,1.33-.7.49-.18.98-.31,1.47-.39.5-.08.95-.12,1.37-.12.9,0,1.69.1,2.38.31.68.21,1.26.47,1.75.77.48.31.88.62,1.18.93.3.31.53.57.68.78l-2.13.81c-.42-.53-.97-.97-1.65-1.3-.68-.33-1.41-.5-2.18-.5-.27,0-.59.03-.96.09-.37.06-.73.17-1.08.31s-.65.34-.88.59c-.24.24-.36.54-.36.9s.07.64.22.86c.14.22.32.39.53.52.21.12.41.21.63.26.21.05.39.09.53.1l3.34.31c.22.02.5.07.85.16.34.09.71.22,1.09.4.38.18.75.42,1.09.73s.62.68.84,1.13c.22.45.33.99.33,1.62s-.12,1.16-.35,1.61c-.23.45-.53.83-.91,1.14-.37.31-.78.56-1.23.75s-.89.34-1.33.44-.85.17-1.22.21-.66.06-.87.06Z"/>
        <path class="cls-2" d="M117.94,44.17h-2.2v-11.71h-5.57v-1.77h13.34v1.77h-5.57v11.71Z"/>
        <path class="cls-2" d="M138.69,44.17h-2.41l-1.28-2.93h-7.83l-1.28,2.93h-2.4l6.08-13.47h3.03l6.09,13.47ZM134.22,39.47l-3.14-7.21-3.15,7.21h6.28Z"/>
      </g>
    </g>
  </g>
  <g>
    <path class="cls-1" d="M77.54,52.52c-.48,0-.85-.14-1.13-.41-.28-.27-.41-.68-.41-1.22v-2.14h.4v2.13c0,.44.1.77.3.98s.48.32.84.32.65-.11.85-.32c.2-.21.3-.54.3-.98v-2.13h.38v2.14c0,.54-.14.95-.41,1.22-.27.27-.65.41-1.13.41Z"/>
    <path class="cls-1" d="M82.46,52.48v-3.97h.38v3.97h-.38ZM82.76,51.76v-.49s1.76-1.59,1.76-1.59h.47l-1.24,1.18-.21.18-.78.72ZM84.64,52.48l-1.17-1.46.25-.29,1.39,1.75h-.46Z"/>
    <path class="cls-1" d="M87.9,52.48v-2.81h.36v.76l-.04-.13c.08-.21.21-.38.4-.49s.42-.17.69-.17v.37s-.03,0-.04,0c-.01,0-.03,0-.04,0-.3,0-.53.09-.7.27-.17.18-.25.44-.25.77v1.43h-.38Z"/>
    <path class="cls-1" d="M92.86,52.51c-.21,0-.39-.03-.55-.1-.15-.07-.27-.17-.36-.29-.08-.12-.12-.27-.12-.43,0-.15.03-.28.1-.4.07-.12.18-.22.34-.29.16-.07.37-.11.64-.11h.97v.28h-.96c-.27,0-.46.05-.56.15-.1.1-.16.22-.16.36,0,.16.06.29.19.38.13.1.3.15.52.15s.4-.05.55-.15c.16-.1.27-.24.34-.42l.08.26c-.07.19-.19.33-.37.44s-.4.17-.67.17ZM93.83,52.48v-.62l-.02-.1v-1.04c0-.24-.07-.42-.2-.55-.13-.13-.33-.19-.6-.19-.18,0-.36.03-.52.09-.16.06-.3.14-.42.24l-.17-.28c.14-.12.31-.22.51-.28.2-.07.41-.1.63-.1.36,0,.64.09.84.27.2.18.3.45.3.82v1.74h-.36Z"/>
    <path class="cls-1" d="M97.69,49.06c-.08,0-.15-.03-.2-.08s-.08-.12-.08-.19.03-.14.08-.19c.05-.05.12-.08.2-.08s.14.02.2.07c.05.05.08.11.08.19s-.03.14-.08.2-.12.08-.2.08ZM97.5,52.48v-2.81h.38v2.81h-.38Z"/>
    <path class="cls-1" d="M102.64,49.65c.23,0,.43.04.6.13s.31.22.41.4.15.4.15.67v1.63h-.38v-1.59c0-.3-.07-.52-.22-.67-.15-.15-.36-.23-.62-.23-.2,0-.37.04-.52.12s-.26.2-.34.35c-.08.15-.12.33-.12.55v1.48h-.38v-2.81h.36v.77l-.06-.15c.09-.2.23-.36.43-.48.2-.12.43-.17.7-.17Z"/>
    <path class="cls-1" d="M107.29,49.06c-.08,0-.15-.03-.2-.08s-.08-.12-.08-.19.03-.14.08-.19c.05-.05.12-.08.2-.08s.14.02.2.07c.05.05.08.11.08.19s-.03.14-.08.2-.12.08-.2.08ZM107.09,52.48v-2.81h.38v2.81h-.38Z"/>
    <path class="cls-1" d="M111.6,52.51c-.21,0-.39-.03-.55-.1-.15-.07-.27-.17-.36-.29-.08-.12-.12-.27-.12-.43,0-.15.03-.28.1-.4.07-.12.18-.22.34-.29.16-.07.37-.11.64-.11h.97v.28h-.96c-.27,0-.46.05-.56.15-.1.1-.16.22-.16.36,0,.16.06.29.19.38.13.1.3.15.52.15s.4-.05.55-.15c.16-.1.27-.24.34-.42l.08.26c-.07.19-.19.33-.37.44s-.4.17-.67.17ZM112.57,52.48v-.62l-.02-.1v-1.04c0-.24-.07-.42-.2-.55-.13-.13-.33-.19-.6-.19-.18,0-.36.03-.52.09-.16.06-.3.14-.42.24l-.17-.28c.14-.12.31-.22.51-.28.2-.07.41-.1.63-.1.36,0,.64.09.84.27.2.18.3.45.3.82v1.74h-.36Z"/>
    <path class="cls-1" d="M117.67,49.65c.23,0,.43.04.6.13s.31.22.41.4.15.4.15.67v1.63h-.38v-1.59c0-.3-.07-.52-.22-.67-.15-.15-.36-.23-.62-.23-.2,0-.37.04-.52.12s-.26.2-.34.35c-.08.15-.12.33-.12.55v1.48h-.38v-2.81h.36v.77l-.06-.15c.09-.2.23-.36.43-.48.2-.12.43-.17.7-.17Z"/>
    <path class="cls-1" d="M125.87,52.48v-3.74h1.61c.42,0,.74.08.97.25.23.17.34.41.34.71,0,.2-.05.37-.14.51-.09.14-.22.24-.39.32-.16.07-.34.11-.53.11l.09-.13c.24,0,.44.04.62.11s.31.18.4.33c.1.14.15.32.15.54,0,.32-.12.56-.35.74-.23.17-.59.26-1.06.26h-1.72ZM126.27,52.16h1.32c.33,0,.58-.06.75-.17.17-.11.26-.29.26-.54s-.09-.42-.26-.53c-.17-.11-.43-.17-.75-.17h-1.36v-.33h1.24c.3,0,.53-.06.7-.17.17-.11.25-.28.25-.51s-.08-.4-.25-.51c-.16-.11-.4-.17-.7-.17h-1.19v3.09Z"/>
    <path class="cls-1" d="M132.1,52.48v-2.81h.36v.76l-.04-.13c.08-.21.21-.38.4-.49s.42-.17.69-.17v.37s-.03,0-.04,0c-.01,0-.03,0-.04,0-.3,0-.53.09-.7.27-.17.18-.25.44-.25.77v1.43h-.38Z"/>
    <path class="cls-1" d="M137.06,52.51c-.21,0-.39-.03-.55-.1-.15-.07-.27-.17-.36-.29-.08-.12-.12-.27-.12-.43,0-.15.03-.28.1-.4.07-.12.18-.22.34-.29.16-.07.37-.11.64-.11h.97v.28h-.96c-.27,0-.46.05-.56.15-.1.1-.16.22-.16.36,0,.16.06.29.19.38.13.1.3.15.52.15s.4-.05.55-.15c.16-.1.27-.24.34-.42l.08.26c-.07.19-.19.33-.37.44s-.4.17-.67.17ZM138.02,52.48v-.62l-.02-.1v-1.04c0-.24-.07-.42-.2-.55-.13-.13-.33-.19-.6-.19-.18,0-.36.03-.52.09-.16.06-.3.14-.42.24l-.17-.28c.14-.12.31-.22.51-.28.2-.07.41-.1.63-.1.36,0,.64.09.84.27.2.18.3.45.3.82v1.74h-.36Z"/>
    <path class="cls-1" d="M143.12,49.65c.23,0,.43.04.6.13s.31.22.41.4.15.4.15.67v1.63h-.38v-1.59c0-.3-.07-.52-.22-.67-.15-.15-.36-.23-.62-.23-.2,0-.37.04-.52.12s-.26.2-.34.35c-.08.15-.12.33-.12.55v1.48h-.38v-2.81h.36v.77l-.06-.15c.09-.2.23-.36.43-.48.2-.12.43-.17.7-.17Z"/>
    <path class="cls-1" d="M148.7,52.51c-.27,0-.51-.06-.72-.18s-.38-.29-.5-.51c-.12-.22-.18-.46-.18-.75s.06-.53.18-.75c.12-.21.29-.38.5-.5s.45-.18.72-.18c.25,0,.47.06.66.17s.35.27.46.48c.12.21.17.47.17.78s-.06.56-.17.78c-.11.21-.27.38-.46.49-.19.11-.42.17-.67.17ZM148.72,52.17c.2,0,.38-.05.54-.14.16-.09.28-.22.37-.38s.14-.36.14-.58-.05-.41-.14-.58-.22-.29-.37-.38c-.16-.09-.34-.14-.54-.14s-.37.05-.53.14c-.16.09-.28.22-.37.38-.09.16-.14.36-.14.58s.05.41.14.58c.09.17.22.29.37.38.16.09.33.14.53.14ZM149.78,52.48v-.84l.04-.57-.05-.57v-1.99h.38v3.97h-.36Z"/>
  </g>
</svg>