<?xml version="1.0" encoding="UTF-8"?>
<svg id="_Слой_1" data-name="Слой 1" xmlns="http://www.w3.org/2000/svg" viewBox="0 0 180 157.12">
  <defs>
    <style>
      .cls-1 {
        fill: #211b89;
      }
    </style>
  </defs>
  <path class="cls-1" d="M179.99,49.26c0-.1-.02-.19-.04-.29,0-.04-.01-.07-.03-.11,0-.02,0-.04-.01-.06-.08-.23-.21-.43-.37-.59-.02-.03-.05-.05-.08-.07-.07-.07-.15-.13-.24-.18-.02-.01-.03-.03-.05-.04l-7.09-3.95v-8.57s0-.01,0-.02c0-.04,0-.07,0-.11,0-.06-.01-.12-.02-.19,0-.04-.02-.07-.03-.11-.02-.06-.04-.13-.06-.19,0-.02-.01-.04-.02-.06,0-.01-.01-.02-.02-.04-.03-.07-.07-.13-.11-.19-.01-.02-.03-.05-.04-.07-.06-.07-.12-.14-.19-.21-.02-.02-.05-.04-.08-.06-.05-.04-.1-.08-.15-.11-.03-.02-.07-.04-.1-.06-.05-.03-.1-.05-.15-.07-.04-.02-.08-.03-.12-.04-.02,0-.04-.02-.07-.03l-17.27-4.79c-.46-.13-.97-.04-1.36.24l-9.5,6.84-9.8-1.64v-8.54s0,0,0,0c0-.02,0-.05,0-.07,0-.08,0-.15-.02-.23,0-.03-.02-.07-.03-.1-.02-.06-.03-.12-.06-.18-.01-.04-.03-.07-.05-.11-.03-.05-.05-.11-.08-.16-.02-.03-.05-.07-.07-.1-.04-.05-.08-.1-.12-.14-.01-.02-.02-.03-.04-.05-.01-.01-.03-.02-.04-.04-.05-.04-.1-.08-.15-.12-.03-.02-.06-.05-.09-.07-.05-.03-.11-.06-.16-.08-.04-.02-.07-.04-.11-.05-.05-.02-.11-.03-.17-.05-.04-.01-.08-.02-.12-.03,0,0,0,0-.01,0l-3.08-.53v-10.14s0-.03,0-.04c0-.05,0-.1-.01-.15,0-.05-.01-.1-.02-.15-.01-.05-.03-.09-.04-.14-.02-.05-.03-.1-.05-.15-.02-.04-.04-.08-.06-.13-.03-.05-.05-.09-.08-.14-.03-.04-.05-.07-.08-.11-.04-.05-.08-.09-.12-.13-.02-.02-.03-.04-.05-.05-.02-.01-.03-.02-.05-.04-.05-.04-.1-.07-.15-.11-.04-.02-.07-.05-.11-.07-.05-.03-.1-.05-.16-.07-.04-.02-.08-.03-.13-.05-.05-.02-.1-.03-.16-.04-.05,0-.09-.02-.14-.03-.02,0-.03,0-.05,0l-5.15-.41V2.84c0-.83-.64-1.52-1.47-1.59L106.8.11c-.44-.04-.86.11-1.19.39-.33.29-.52.7-.54,1.13l-.51,12.29-3.36,5.43s-.02.05-.03.08c-.04.08-.08.16-.11.25-.01.03-.03.06-.03.09-.03.11-.05.22-.06.34,0,.02,0,.03,0,.05,0,.01,0,.02,0,.03l-.03,9.89h-21.87l-.03-9.87s0-.05-.01-.08c0-.06.01-.11,0-.17-.02-.32-.13-.62-.31-.86,0-.01,0-.03-.02-.04l-3.27-5.28-.49-11.68c-.02-.59-.29-1.15-.74-1.55s-1.03-.58-1.63-.54l-12.55,1.05c-1.12.09-2,1.05-2,2.18v8.33l-4.61.37c-.09,0-.18.03-.27.05-.43-.04-.86.09-1.21.4-.42.38-.59.94-.51,1.46-.01.09-.03.18-.03.27v9.6l-2.6.45c-.08.01-.16.04-.24.06-.4,0-.79.16-1.1.46-.38.37-.53.89-.45,1.38,0,.08-.02.17-.02.25v8.04l-9.8,1.64-9.27-6.67c-.54-.39-1.22-.51-1.86-.33l-16.57,4.6c-.07.02-.14.05-.21.08-.53.07-1.01.4-1.24.92-.13.29-.17.59-.13.89,0,.07-.02.15-.02.22v8.12l-6.79,3.79s-.08.06-.12.09c-.42.17-.76.5-.92.96-.08.24-.1.49-.07.72,0,.05-.02.09-.02.14v22.86c0,.86.5,1.64,1.29,1.99l28.4,12.84c.22.62.81,1.07,1.5,1.07.44,0,.83-.18,1.12-.46.13-.04.25-.07.37-.13l11.83-5.88c.74-.37,1.2-1.1,1.21-1.93l.13-9.81,8.28-1.51,7.72,8.07s.07.05.1.08c.29.37.74.62,1.24.62h.01c.13,0,.25-.02.37-.05.04,0,.08,0,.12,0l4.9-.6c-.33,3.22-1.85,10.19-8.67,14.2-5.96,3.5-9.08,5.86-11.59,7.76-1.64,1.24-3.06,2.32-4.88,3.4-.14.08-.26.19-.37.31-10.69,11.94-9.32,22.17-6.28,28.66,7.48,15.96,32.57,26.12,52.3,26.12.68,0,1.35-.01,2.02-.04,31.19-1.81,54.7-17.51,54.7-36.54,0-.07,0-.14-.01-.21-2.69-20.02-19.79-31.54-50.83-34.24-.77-.13-9.14-1.74-9.14-11.01s10.81-9.48,11.24-9.48l3.76.05-.02,8.47c0,.81.6,1.49,1.41,1.59l6.84.83c.2.09.42.14.65.14.1,0,.19-.01.28-.03l6.6.8s.05,0,.08,0c.04,0,.07.01.11.01h.01s.06,0,.09,0c.05,0,.1,0,.15-.02.07-.01.13-.03.19-.05.05-.01.09-.03.13-.04.07-.03.14-.06.21-.1.03-.02.06-.03.09-.05.09-.06.18-.14.26-.22,0,0,0,0,0,0l7.92-8.28,8.28,1.51.14,10.17c0,.6.35,1.14.89,1.41l12.4,6.16c.06.03.13.05.2.07.28.25.65.4,1.05.4.7,0,1.28-.45,1.5-1.07l28.75-13c.57-.26.94-.83.94-1.46v-23.58s0-.04,0-.06ZM174.49,48.97l-25.62,8.76-5.81-2.4v-3.58l7.02-3.59c.79-.4,1.1-1.37.7-2.15s-1.36-1.1-2.15-.7l-7.29,3.72-1.97-.67,4.75-3.36s.04-.04.07-.06c.06-.05.13-.1.18-.16.03-.04.06-.07.09-.11.04-.06.08-.11.12-.18.02-.04.04-.08.06-.12.03-.07.06-.13.08-.2.01-.04.03-.09.04-.13,0-.02.01-.04.02-.06.01-.06,0-.12.01-.18,0-.03.01-.06.01-.08v-3.68l9.81,3.1v5.75c0,.88.72,1.6,1.6,1.6s1.6-.72,1.6-1.6v-5.9l11.1-5.08v7.02c0,.58.31,1.11.82,1.4l4.78,2.66ZM143.05,58.79l4.16,1.72v23.7l-4.16-2.07v-23.35ZM134.96,47.56s0,0,0,0c0,0,0,0-.02.01-.09.07-.17.14-.25.23-.02.03-.04.05-.06.08-.05.07-.1.13-.14.21-.02.04-.04.07-.05.11-.03.07-.06.14-.08.22-.01.04-.02.08-.03.12-.02.08-.03.17-.03.25,0,.03,0,.05,0,.07l-.14,18.1-7.24-1.32v-23.09l12.2,2.08-4.15,2.94ZM153.53,32.35l12.31,3.41-9.76,4.46-9.38-2.96,6.83-4.92ZM141.58,39.19v2.61l-16.01-2.72c-.46-.08-.94.05-1.3.35-.36.3-.57.75-.57,1.22v25.68l-5.36,5.6-.26-30.24,11.71-11.82v6c0,.78.56,1.45,1.33,1.58l10.46,1.75ZM75.99,72.55l-4.1.5v-31.93c0-.11-.02-.22-.03-.33.09-.47-.03-.97-.37-1.35l-4.64-5.25c-.58-.66-1.6-.72-2.26-.14-.66.59-.72,1.6-.14,2.26l2.46,2.78-2.76.15-2.62-2.64-.26-14.13,14.58-.75.03,9.95s0,0,0,0c0,0,0,0,0,0l.12,40.87ZM65.1,42.39l3.58-.2v31.25s-3.86.47-3.86.47l.28-31.52ZM54.62,24.56v-6.82l3.43,3.83.22,11.73-6.37-6.43.9-.16c1.05-.18,1.81-1.09,1.81-2.15ZM58.84,14.7l.86,1.25c.41.6,1.09.95,1.8.95.06,0,.12,0,.19,0l11.33-.97,1.64,2.65-14.34.74-3.95-4.41,2.47-.2ZM79.09,39.02h21.82v4.19h-21.81v-4.19ZM104.11,37.42s0,0,0,0c0,0,0,0,0,0l.04-15.54,14.58.75-.26,14.13-2.62,2.64-2.76-.16,2.46-2.78c.58-.66.52-1.67-.14-2.26-.66-.59-1.67-.52-2.26.14l-4.64,5.25s-.03.05-.05.07c-.03.04-.07.09-.1.13-.03.05-.06.09-.08.14-.02.04-.04.09-.06.14-.02.05-.04.11-.05.16-.01.05-.02.09-.03.14,0,.06-.01.12-.02.18,0,.03,0,.06,0,.09v21.89l-4.07-.05.07-25.07ZM106.98,16.08l11.67,1s.09,0,.14,0c.53,0,1.02-.26,1.32-.7l1.05-1.53,2.47.2-3.95,4.41-14.34-.74,1.64-2.65ZM126.71,26.78l1.39.24-6.37,6.43.22-11.73,3.43-3.82v7.31c0,.78.56,1.44,1.33,1.58ZM111.31,42.34l3.58.2.28,31.52-3.86-.47v-31.25ZM118.76,4.31v8.38l-.77,1.12-10.2-.87.4-9.51,10.56.88ZM100.92,33.27v2.55h-21.84v-2.55s21.84,0,21.84,0ZM61.24,4.16l10.56-.88.4,9.51-10.2.87-.77-1.13s0-.03,0-.04V4.16ZM48.39,37.36c1.06-.18,1.82-1.08,1.82-2.15v-5.51l11.71,11.82-.26,30.24-5.36-5.59v-24.98c0-.64-.28-1.25-.78-1.67-.49-.42-1.14-.59-1.78-.48l-15.32,2.61v-2.61l9.97-1.67ZM45.73,49.51c0-.14-.03-.28-.05-.42.15-.62-.08-1.29-.63-1.68l-4.15-2.94,12.2-2.08v23.09l-7.24,1.32-.13-17.29ZM26.47,32.2l6.83,4.92-9.38,2.96-9.76-4.46,12.31-3.41ZM9.99,46.32c.69-.39,1.12-1.12,1.12-1.91v-6.67l11.1,5.08v5.9c0,.88.72,1.6,1.6,1.6s1.6-.72,1.6-1.6v-5.75l9.81-3.1v3.37s.01.09.02.13c-.02.14-.02.29,0,.44.08.5.39.9.8,1.12.03.03.06.06.1.09l4.5,3.19-1.97.67-7.29-3.72c-.79-.4-1.75-.09-2.15.7-.4.79-.09,1.75.7,2.15l7.02,3.59v3.58l-5.81,2.4-25.62-8.76,4.48-2.5ZM32.79,60.35l4.16-1.72v23.35l-4.16,2.07v-23.69ZM3.2,51.41l26.39,9.02v23.22l-26.39-11.93v-20.31ZM42.54,79.21l-2.39,1.19v-24.14s0,0,0,0v-4.49l2.39-.82.14,17.79c0,.06.01.13.02.19-.01.09-.03.17-.03.26l-.13,10.03ZM97.09,62.4c-5,.03-14.45,2.72-14.45,12.68s7.79,13.56,11.91,14.18c.03,0,.07,0,.1.01,29.33,2.54,45.47,13.09,47.98,31.37-.09,17.25-22.28,31.53-51.66,33.24-18.95.69-44.08-8.89-51.28-24.25-3.8-8.11-1.91-16.51,5.6-24.99,1.86-1.13,3.3-2.22,4.96-3.47,2.44-1.85,5.49-4.15,11.28-7.56,8.57-5.04,10.05-13.96,10.29-17.35l5.43-.66c1.1-.13,1.93-1.07,1.92-2.17l-.08-27.04h21.78l-.05,16.04-3.76-.05ZM104.03,65.68l4.08.05v7.47l-4.1-.5.02-7.02ZM137.33,68.86l.14-17.77,2.39.82v4.49s0,0,0,0v24.14l-2.39-1.19-.14-10.5ZM150.41,83.8v-23.22l26.39-9.02v20.31l-26.39,11.93Z"/>
  <path class="cls-1" d="M52.49,105.6c-8.77,9.03-8.57,20.25.52,30,.34.37.81.56,1.28.56.43,0,.86-.16,1.19-.47.71-.66.75-1.77.09-2.47-10.66-11.43-4.93-20.68-.57-25.17,8.99-9.26,26.26-13.94,40.43-9.93-1.72-.17-3.48-.26-5.27-.26-19,0-34.46,10-34.46,22.29,0,5.35,2.93,10.27,7.81,14.11.03.04.06.08.1.12,8.12,8.49,19.19,12.98,31.16,12.98,4.68,0,9.49-.69,14.32-2.08,13.34-3.86,23.19-12.5,25.1-22.01,1.05-5.21.23-13.09-9.61-21.03-.75-.61-1.85-.49-2.46.26-.61.75-.49,1.85.26,2.46,6.71,5.42,9.61,11.51,8.38,17.62-1.66,8.24-10.55,15.83-22.64,19.34-9.27,2.69-18.46,2.54-26.57-.19,2.76.46,5.64.71,8.62.71,19,0,34.46-10,34.46-22.29,0-7.64-5.98-14.39-15.06-18.41-7.57-6.59-18.22-9.53-29.98-8.27-10.69,1.14-20.81,5.68-27.09,12.15ZM121.12,120.14c0,10.36-13.89,18.79-30.96,18.79-9.64,0-18.27-2.69-23.95-6.9-.02-.02-.05-.05-.07-.07-.13-.14-.29-.25-.45-.33-4.06-3.18-6.48-7.16-6.48-11.48,0-10.36,13.89-18.79,30.96-18.79,6.47,0,12.47,1.21,17.45,3.28.14.09.29.15.44.19,7.9,3.41,13.07,9,13.07,15.32Z"/>
  <path class="cls-1" d="M90.17,104.38c-.09,0-.17,0-.26,0-16.17,0-22.86,9.52-23.57,14.17-.57,3.74,1.94,11.82,10.55,14.46,4.52,1.38,6.73-.09,7.78-1.57,1.6-2.24,1.02-5.45-1.29-7.14-1.16-.85-2.59-2.28-2.8-4.25.06-3.87,4.77-5.64,9.15-5.64,4.9,0,10.47,2.47,10.57,5.77.08,2.52-3.38,4.02-4.87,4.55-.22.08-.44.15-.67.22-.94.3-1.99.64-2.94,1.41h0c-1.02.82-1.62,2.21-1.58,3.61.05,1.49.77,2.81,2.04,3.71,1.01.72,2.28,1.1,3.66,1.1.5,0,1.02-.05,1.55-.15,13.56-2.58,16.41-10.09,16.41-15.94,0-2.79-4.22-14.12-23.72-14.33ZM96.84,131.21c-1.01.19-1.93.06-2.51-.36-.37-.27-.57-.59-.58-.97-.01-.37.16-.69.28-.79.43-.35,1.07-.56,1.8-.79.26-.08.51-.16.76-.25,4.69-1.66,7.31-4.56,7.21-7.96-.18-5.66-7.44-9.16-14.07-9.16-6.09,0-12.65,2.88-12.65,9.22,0,.05,0,.11,0,.16.3,3.31,2.47,5.54,4.23,6.83.77.57,1,1.59.51,2.28-.7.98-2.51.68-3.9.25-6.62-2.03-8.46-8.31-8.11-10.59.34-2.23,4.99-11.19,20.1-11.19.08,0,.16,0,.24,0,18.37.19,20.24,10.79,20.25,10.83,0,6.58-4.56,10.79-13.56,12.5Z"/>
</svg>